# xmcd
#
# Track frame offsets:
#	150
#	17646
#	33860
#	47861
#	63174
#
# Disc length: 1037 seconds
#
# Revision: 0
# Processed by: cddbd v1.5.2PL0 Copyright (c) Steve Scherf et al.
# Submitted via: EZCDAudioConverter 7.1.5.1
#
DISCID=35040b05
DTITLE=Aaron Crawford - Modern Day American Dream
DYEAR=2013
DGENRE=Country
TTITLE0=Ghost of a Cowboy
TTITLE1=Freedom Like This
TTITLE2=Modern Day American Dream
TTITLE3=She's Got a Love
TTITLE4=Vagabond Heart
EXTD=
EXTT0=
EXTT1=
EXTT2=
EXTT3=
EXTT4=
PLAYORDER=
